<?xml version="1.0" encoding="UTF-8" standalone="no"?>
<!-- Uploaded to: SVG Repo, www.svgrepo.com, Transformed by: SVG Repo Mixer Tools -->

<svg
   width="800px"
   height="800px"
   viewBox="0 0 24 24"
   version="1.1"
   fill="#000000"
   id="svg1"
   sodipodi:docname="bluetooth-svgrepo-com (4).svg"
   inkscape:version="1.3.2 (091e20e, 2023-11-25, custom)"
   xmlns:inkscape="http://www.inkscape.org/namespaces/inkscape"
   xmlns:sodipodi="http://sodipodi.sourceforge.net/DTD/sodipodi-0.dtd"
   xmlns="http://www.w3.org/2000/svg"
   xmlns:svg="http://www.w3.org/2000/svg">
  <defs
     id="defs1">
    <clipPath
       clipPathUnits="userSpaceOnUse"
       id="clipPath1">
      <rect
         style="opacity:0.56;fill:#365072;stroke:#ffffff;stroke-width:0.0296178"
         id="rect2"
         width="6.2397246"
         height="17.978456"
         x="9.019906"
         y="3.010771" />
    </clipPath>
    <clipPath
       clipPathUnits="userSpaceOnUse"
       id="clipPath2">
      <rect
         style="opacity:0.56;fill:#365072;stroke:#ffffff;stroke-width:0.0296178"
         id="rect3"
         width="6.2397246"
         height="17.978456"
         x="9.019906"
         y="3.010771" />
    </clipPath>
    <clipPath
       clipPathUnits="userSpaceOnUse"
       id="clipPath3">
      <rect
         style="opacity:0.56;fill:#365072;stroke:#ffffff;stroke-width:0.0296178"
         id="rect4"
         width="6.2397246"
         height="17.978456"
         x="9.019906"
         y="3.010771" />
    </clipPath>
  </defs>
  <sodipodi:namedview
     id="namedview1"
     pagecolor="#ffffff"
     bordercolor="#000000"
     borderopacity="0.25"
     inkscape:showpageshadow="2"
     inkscape:pageopacity="0.0"
     inkscape:pagecheckerboard="0"
     inkscape:deskcolor="#d1d1d1"
     showgrid="false"
     inkscape:zoom="1.02625"
     inkscape:cx="444.82339"
     inkscape:cy="438.97686"
     inkscape:window-width="1920"
     inkscape:window-height="1017"
     inkscape:window-x="1912"
     inkscape:window-y="-8"
     inkscape:window-maximized="1"
     inkscape:current-layer="svg1" />
  <g
     id="SVGRepo_bgCarrier"
     stroke-width="0"
     clip-path="url(#clipPath3)"
     style="fill:#ffffff;fill-opacity:1" />
  <g
     id="SVGRepo_tracerCarrier"
     stroke-linecap="round"
     stroke-linejoin="round"
     clip-path="url(#clipPath2)"
     style="fill:#ffffff;fill-opacity:1" />
  <g
     id="SVGRepo_iconCarrier"
     clip-path="url(#clipPath1)"
     style="fill:#ffffff;fill-opacity:1">
    <!-- Uploaded to: SVG Repo, www.svgrepo.com, Transformed by: SVG Repo Mixer Tools -->
    <title
       id="title1">ic_fluent_bluetooth_24_regular</title>
    <desc
       id="desc1">Created with Sketch.</desc>
    <g
       id="ðŸ”-Product-Icons"
       stroke="none"
       stroke-width="1"
       fill="none"
       fill-rule="evenodd"
       style="fill:#ffffff;fill-opacity:1">
      <g
         id="ic_fluent_bluetooth_24_regular"
         fill="#212121"
         fill-rule="nonzero"
         style="fill:#ffffff;fill-opacity:1">
        <path
           d="M10.6976156,12.973629 L13.3800344,15.2108842 L10.5042702,18.327709 L10.5042702,13.1347205 L10.6976156,12.973629 Z M11.8691709,11.9975127 L14.9460297,9.43393586 C15.2757472,9.15922183 15.3081393,8.66436728 15.0170462,8.34901634 L10.3053728,3.24470349 C9.84228839,2.74302875 9.00427018,3.07068033 9.00427018,3.75341357 L9.00427018,9.60805953 L7.88403761,8.67373635 C7.56594113,8.40842991 7.09299962,8.45122469 6.82769319,8.76932117 C6.56238675,9.08741765 6.60518153,9.56035916 6.92327801,9.8256656 L9.00427018,11.5613045 L9.00427018,12.4320753 L6.92357169,14.1656714 C6.60534,14.4308156 6.56230413,14.9037353 6.82744837,15.2219669 C7.0925926,15.5401986 7.56551223,15.5832345 7.88374392,15.3180903 L9.00427018,14.3844903 L9.00427018,20.2465864 C9.00427018,20.9294025 9.84246062,21.2570122 10.3054878,20.7551719 L15.0171612,15.6485431 C15.3080353,15.3332864 15.2757335,14.8387355 14.9463234,14.563993 L11.8691709,11.9975127 Z M10.6981134,11.0207992 L10.5042702,10.8591254 L10.5042702,5.67165144 L13.3796242,8.78661831 L10.6981134,11.0207992 Z"
           id="ðŸŽ¨-Color"
           style="fill:#ffffff;fill-opacity:1" />
      </g>
    </g>
  </g>
</svg>
