<?xml version="1.0" encoding="UTF-8"?>
<!DOCTYPE svg PUBLIC "-//W3C//DTD SVG 1.1//EN" "http://www.w3.org/Graphics/SVG/1.1/DTD/svg11.dtd">
<!-- Creator: CorelDRAW 2018 (64-Bit) -->
<svg xmlns="http://www.w3.org/2000/svg" xml:space="preserve" width="345mm" height="110mm" version="1.1" style="shape-rendering:geometricPrecision; text-rendering:geometricPrecision; image-rendering:optimizeQuality; fill-rule:evenodd; clip-rule:evenodd"
viewBox="0 0 34500 11000"
 xmlns:xlink="http://www.w3.org/1999/xlink"
 xmlns:dc="http://purl.org/dc/elements/1.1/"
 xmlns:cc="http://creativecommons.org/ns#"
 xmlns:rdf="http://www.w3.org/1999/02/22-rdf-syntax-ns#"
 xmlns:svg="http://www.w3.org/2000/svg">
 <defs>
  <style type="text/css">
   <![CDATA[
    .fil0 {fill:#FEFEFE;fill-rule:nonzero}
   ]]>
  </style>
 </defs>
 <g id="Layer_x0020_1">
  <metadata id="CorelCorpID_0Corel-Layer"/>
  <g id="g10">
   <g id="g12">
    <polygon id="path14" class="fil0" points="11770.54,7865.54 13061.77,7865.54 13061.77,267.32 11770.54,267.32 "/>
    <path id="path16" class="fil0" d="M15586.63 4783.15c-136.64,0 -247.71,-111.23 -247.71,-247.81 0,-136.58 111.09,-247.76 247.71,-247.76l1539.02 0.02 0 -1291.22 -1542.08 -0.02c-847.27,1.58 -1535.98,691.36 -1535.98,1538.98 0,848.64 690.39,1539.03 1539.02,1539.03 136.58,0 247.77,111.18 247.77,247.76 0,136.63 -111.19,247.8 -247.77,247.8l-1539.02 0.02 0 1291.2 1539.04 0c848.59,0 1539.02,-690.39 1539.02,-1539.02 0,-848.61 -690.43,-1538.98 -1539.02,-1538.98z"/>
    <path id="path18" class="fil0" d="M9504.94 5652.97c0,508 -413.3,921.35 -921.34,921.35l-20.15 0c-508.04,0 -921.34,-413.35 -921.34,-921.35l0 -2656.61 -1291.27 0 0 2656.61c0,1221.95 990.62,2212.55 2212.61,2212.55l20.15 0.02c1221.99,0 2212.56,-990.6 2212.56,-2212.56l0 -2656.62 -1291.22 0 0 2656.61z"/>
    <g>
     <path id="path20" class="fil0" d="M21152.84 6200.83c-209.58,234.98 -514.36,383.33 -853.23,383.33 -630.47,0 -1143.34,-512.94 -1143.34,-1143.38 0,-630.42 512.87,-1143.34 1143.34,-1143.34 389.18,0 733.24,195.52 939.86,493.33 128.18,184.73 203.52,408.67 203.52,650.02 0,291.57 -109.85,557.88 -290.15,760.07l0 -0.03zm-853.23 -3194.64c-1344.56,0 -2434.56,1089.99 -2434.56,2434.56 0,1269.83 972.19,2312.42 2212.92,2424.41 73,6.62 146.91,10.19 221.64,10.19 413.3,0 802.48,-103.13 1143.38,-284.82l0 274.99 1291.24 0.02 0 -2424.78c0,-1344.58 -1090,-2434.55 -2434.61,-2434.55l-0.01 -0.02zm0 0l0 0 0 0z"/>
    </g>
    <g>
     <path id="path22" class="fil0" d="M3187.76 6584.15c-339.11,0 -644.03,-148.55 -853.59,-383.78 -180.09,-202.09 -289.78,-468.22 -289.78,-759.61 0,-241.24 75.28,-465.13 203.36,-649.81 206.58,-297.94 550.79,-493.53 940.01,-493.53 630.44,0 1143.34,512.93 1143.34,1143.34 0,630.46 -512.9,1143.39 -1143.34,1143.39zm0 -3577.96c-44.02,0 -87.74,1.23 -131.14,3.51 -218.1,11.61 -428.56,51.99 -627.7,117.24 -972.98,318.93 -1675.75,1234.21 -1675.75,2313.82l0 5007.73 1291.22 -1291.28 0 -1566.66c340.93,181.68 730.08,284.81 1143.37,284.81 74.7,0 148.6,-3.56 221.61,-10.18 1240.68,-111.94 2212.96,-1154.54 2212.96,-2424.42 0,-1344.58 -1090.02,-2434.55 -2434.57,-2434.55l0 -0.02zm0 0l0 0 0 0z"/>
    </g>
    <path id="path24" class="fil0" d="M27445.88 3006.19l-1291.22 0c-1344.62,0 -2434.66,1089.99 -2434.66,2434.56l0 2434.6 1291.28 0 0 -2434.6c0,-630.42 512.93,-1143.34 1143.38,-1143.34l0 0 1291.22 -1291.22z"/>
    <g>
     <path id="path26" class="fil0" d="M28654.79 3572.72c-103.59,-103.59 -271.59,-103.59 -375.18,0l-104.72 104.72 -620.74 620.75 0.06 0.06 725.4 725.4c103.59,103.59 271.59,103.59 375.18,0l537.86 -537.82c103.59,-103.65 103.59,-271.62 0,-375.22l-537.86 -537.86 0 -0.03zm0 0l0 0 0 0z"/>
    </g>
    <g>
     <path id="path28" class="fil0" d="M30268.44 1959.11c-103.59,-103.65 -271.58,-103.65 -375.18,0l-104.71 104.66 -620.75 620.75 0.06 0.06 725.4 725.4c103.6,103.65 271.59,103.65 375.18,0l537.92 -537.81c103.59,-103.65 103.59,-271.63 0,-375.22l-537.92 -537.82 0 -0.02zm0 0l0 0 0 0z"/>
    </g>
    <path id="path30" class="fil0" d="M31882.14 345.42c-103.65,-103.65 -271.63,-103.65 -375.22,0l-104.66 104.71 -620.79 620.75 0.04 -0.01 725.41 725.45c103.59,103.59 271.58,103.59 375.22,0l537.86 -537.87c103.59,-103.59 103.59,-271.58 0,-375.17l-537.86 -537.86z"/>
    <path id="path32" class="fil0" d="M33495.79 1959.07c-103.65,-103.59 -271.58,-103.59 -375.22,0l-104.66 104.72 -620.79 620.74 0.05 -0.01 725.4 725.45c103.65,103.59 271.59,103.59 375.22,0l537.86 -537.86c103.6,-103.59 103.6,-271.59 0,-375.18l-537.86 -537.86z"/>
    <g>
     <path id="path34" class="fil0" d="M31882.1 3572.72c-103.6,-103.59 -271.59,-103.59 -375.18,0l-104.66 104.72 -620.79 620.75 0.06 0.06c0,0 725.4,725.4 725.4,725.4 103.6,103.65 271.59,103.65 375.18,0l537.92 -537.82c103.59,-103.65 103.59,-271.62 0,-375.22l-537.92 -537.86 -0.01 -0.03zm0 0l0 0 0 0z"/>
    </g>
    <polygon id="path36" class="fil0" points="4405.44,9294.14 3946.13,10443.6 3904.55,10443.6 3443.38,9294.14 3443.38,10443.6 3335.63,10443.6 3335.63,9152.37 3496.3,9152.37 3925.36,10207.15 4352.52,9152.37 4515.08,9152.37 4515.08,10443.6 4405.44,10443.6 "/>
    <polygon id="path38" class="fil0" points="5587.39,9152.37 6386.92,9152.37 6386.92,9250.62 5695.15,9250.62 5695.15,9727.04 6373.69,9727.04 6373.69,9825.29 5695.15,9825.29 5695.15,10345.29 6386.92,10345.29 6386.92,10443.6 5587.39,10443.6 "/>
    <path id="path40" class="fil0" d="M7747.48 10014.29l602.98 0 -302.44 -763.67 -300.54 763.67zm636.98 98.31l-670.98 0 -126.61 331 -120.99 0 516.03 -1291.23 134.18 0 515.97 1291.23 -120.95 0 -126.65 -331z"/>
    <g>
     <path id="path42" class="fil0" d="M9726.18 10161.98c81.24,94.48 213.55,183.31 393.14,183.31 258.96,0 332.61,-143.59 332.61,-251.31 0,-177.72 -170.07,-225.15 -345.85,-272.41 -198.49,-54.82 -410.15,-100.28 -410.15,-332.71 0,-206.06 185.2,-336.44 413.91,-336.44 187.13,0 328.9,66.08 427.16,177.67l-71.84 79.32c-90.7,-109.61 -219.24,-158.79 -360.96,-158.79 -168.24,0 -294.89,96.42 -294.89,232.54 0,149.32 156.9,181.53 328.9,228.77 202.25,56.71 427.16,119.28 427.16,376.35 0,160.64 -107.72,355.36 -447.92,355.36 -207.95,0 -364.79,-83.22 -461.26,-200.4l70 -81.26 -0.01 0zm0 0l0 0 0 0z"/>
    </g>
    <path id="path44" class="fil0" d="M11681.16 9152.42l109.65 0 0 782.74c0,255.12 134.18,410.13 381.85,410.13 247.56,0 381.78,-155.01 381.78,-410.13l0 -782.74 109.6 0 0 784.6c0,311.9 -166.31,506.61 -491.4,506.61 -323.24,0 -491.5,-196.58 -491.5,-506.61l0.02 -784.6z"/>
    <path id="path46" class="fil0" d="M14260.89 9250.62l-353.43 0 0 542.56 353.43 0c166.31,0 279.73,-113.41 279.73,-272.2 0,-158.76 -113.42,-270.36 -279.73,-270.36zm-75.59 640.79l-277.84 0 0 552.23 -107.77 0 0 -1291.22 470.67 0c217.37,0 383.68,137.97 383.68,368.56 0,228.67 -162.54,355.32 -349.67,362.93l364.79 559.73 -130.43 0 -353.43 -552.23z"/>
    <polygon id="path48" class="fil0" points="15896.48,9152.37 16696.01,9152.37 16696.01,9250.62 16004.2,9250.62 16004.2,9727.04 16682.77,9727.04 16682.77,9825.29 16004.2,9825.29 16004.2,10345.29 16696.01,10345.29 16696.01,10443.6 15896.48,10443.6 "/>
    <polygon id="path50" class="fil0" points="18838.16,9294.14 18378.89,10443.6 18337.26,10443.6 17876.11,9294.14 17876.11,10443.6 17768.33,10443.6 17768.33,9152.37 17928.99,9152.37 18358.02,10207.09 18785.22,9152.37 18947.76,9152.37 18947.76,10443.6 18838.16,10443.6 "/>
    <polygon id="path52" class="fil0" points="20020.15,9152.37 20819.61,9152.37 20819.61,9250.62 20127.85,9250.62 20127.85,9727.04 20806.37,9727.04 20806.37,9825.29 20127.85,9825.29 20127.85,10345.29 20819.61,10345.29 20819.61,10443.6 20020.15,10443.6 "/>
    <polygon id="path54" class="fil0" points="22085.73,9324.39 22085.73,10443.6 21978.01,10443.6 21978.01,9152.37 22087.62,9152.37 22877.67,10256.41 22877.67,9152.37 22985.44,9152.37 22985.44,10443.6 22879.55,10443.6 "/>
    <polygon id="path56" class="fil0" points="24488.67,9250.62 24076.65,9250.62 24076.65,9152.37 25010.36,9152.37 25010.36,9250.62 24598.28,9250.62 24598.28,10443.6 24488.67,10443.6 "/>
   </g>
  </g>
 </g>
</svg>
