<!DOCTYPE svg PUBLIC "-//W3C//DTD SVG 1.1//EN" "http://www.w3.org/Graphics/SVG/1.1/DTD/svg11.dtd">
<!-- Uploaded to: SVG Repo, www.svgrepo.com, Transformed by: SVG Repo Mixer Tools -->
<svg height="800px" width="800px" version="1.1" id="Layer_1" xmlns="http://www.w3.org/2000/svg" xmlns:xlink="http://www.w3.org/1999/xlink" viewBox="0 0 512 512" xml:space="preserve" fill="#000000">
<g id="SVGRepo_bgCarrier" stroke-width="0"/>
<g id="SVGRepo_tracerCarrier" stroke-linecap="round" stroke-linejoin="round"/>
<g id="SVGRepo_iconCarrier"> <g transform="translate(1 1)"> <g> <path style="fill:#365072;" d="M109.933,408.6v-34.133H75.8V408.6l0,0c0,52.053,41.813,93.867,93.867,93.867h153.6 c52.053,0,93.867-41.813,93.867-93.867v-34.133H383V408.6c0,33.28-26.453,59.733-59.733,59.733h-153.6 C136.387,468.333,109.933,441.88,109.933,408.6L109.933,408.6z"/> <path style="fill:#365072;" d="M118.467,374.467h-51.2c-5.12,0-8.533-3.413-8.533-8.533V331.8H127v34.133 C127,371.053,123.587,374.467,118.467,374.467"/> </g> <path style="fill:#FFFFFF;" d="M84.333,365.933V331.8h-25.6v34.133c0,5.12,3.413,8.533,8.533,8.533h25.6 C87.747,374.467,84.333,371.053,84.333,365.933"/> <path style="fill:#365072;" d="M152.6,135.533H33.133V24.6c0-9.387,7.68-17.067,17.067-17.067h85.333 c9.387,0,17.067,7.68,17.067,17.067V135.533z"/> <path style="fill:#FFFFFF;" d="M75.8,7.533H50.2c-9.387,0-17.067,7.68-17.067,17.067v110.933h25.6V24.6 C58.733,15.213,66.413,7.533,75.8,7.533"/> <path style="fill:#365072;" d="M169.667,331.8h-153.6c-5.12,0-8.533-3.413-8.533-8.533v-179.2c0-5.12,3.413-8.533,8.533-8.533 h153.6c5.12,0,8.533,3.413,8.533,8.533v179.2C178.2,328.387,174.787,331.8,169.667,331.8"/> <path style="fill:#FFFFFF;" d="M33.133,323.267v-179.2c0-5.12,3.413-8.533,8.533-8.533h-25.6c-5.12,0-8.533,3.413-8.533,8.533 v179.2c0,5.12,3.413,8.533,8.533,8.533h25.6C36.547,331.8,33.133,328.387,33.133,323.267"/> <polygon style="fill:#33B34A;" points="58.733,67.267 127,67.267 127,41.667 58.733,41.667 "/> <path style="fill:#365072;" d="M493.933,331.8H306.2c-5.12,0-8.533-3.413-8.533-8.533V152.6c0-5.12,3.413-8.533,8.533-8.533 h187.733c5.12,0,8.533,3.413,8.533,8.533v170.667C502.467,328.387,499.053,331.8,493.933,331.8"/> <path style="fill:#365072;" d="M493.933,144.067h-25.6c5.12,0,8.533,3.413,8.533,8.533v170.667c0,5.12-3.413,8.533-8.533,8.533 h25.6c5.12,0,8.533-3.413,8.533-8.533V152.6C502.467,148.333,499.053,144.067,493.933,144.067"/> <path style="fill:#365072;" d="M425.667,374.467h-51.2c-5.12,0-8.533-3.413-8.533-8.533V331.8H434.2v34.133 C434.2,371.053,430.787,374.467,425.667,374.467"/> <path style="fill:#365072;" d="M408.6,331.8v34.133c0,5.12-3.413,8.533-8.533,8.533h25.6c5.12,0,8.533-3.413,8.533-8.533V331.8 H408.6z"/> <polygon style="fill:#365072;" points="314.733,144.067 485.4,144.067 485.4,7.533 314.733,7.533 "/> <polygon style="fill:#365072;" points="468.333,144.067 485.4,144.067 485.4,7.533 468.333,7.533 "/> <g> <polygon style="fill:#33B34A;" points="348.867,92.867 383,92.867 383,58.733 348.867,58.733 "/> <polygon style="fill:#33B34A;" points="417.133,92.867 451.267,92.867 451.267,58.733 417.133,58.733 "/> </g> <path d="M152.6,144.067H33.133c-5.12,0-8.533-3.413-8.533-8.533V24.6C24.6,10.093,35.693-1,50.2-1h85.333 c14.507,0,25.6,11.093,25.6,25.6v110.933C161.133,140.653,157.72,144.067,152.6,144.067z M41.667,127h102.4V24.6 c0-5.12-3.413-8.533-8.533-8.533H50.2c-5.12,0-8.533,4.267-8.533,8.533V127z"/> <path d="M169.667,340.333h-153.6C6.68,340.333-1,332.653-1,323.267v-179.2C-1,134.68,6.68,127,16.067,127h153.6 c9.387,0,17.067,7.68,17.067,17.067v179.2C186.733,332.653,179.053,340.333,169.667,340.333z M169.667,323.267v8.533V323.267 L169.667,323.267z M16.067,144.067v179.2h153.6v-179.2H16.067z"/> <path d="M118.467,383h-51.2c-9.387,0-17.067-7.68-17.067-17.067V331.8c0-5.12,3.413-8.533,8.533-8.533H127 c5.12,0,8.533,3.413,8.533,8.533v34.133C135.533,375.32,127.853,383,118.467,383z M67.267,340.333v25.6h51.2v-25.6H67.267z"/> <path d="M127,75.8H58.733c-5.12,0-8.533-3.413-8.533-8.533v-25.6c0-5.12,3.413-8.533,8.533-8.533H127 c5.12,0,8.533,3.413,8.533,8.533v25.6C135.533,72.387,132.12,75.8,127,75.8z M67.267,58.733h51.2V50.2h-51.2V58.733z"/> <path d="M485.4,152.6H314.733c-5.12,0-8.533-3.413-8.533-8.533V7.533c0-5.12,3.413-8.533,8.533-8.533H485.4 c5.12,0,8.533,3.413,8.533,8.533v136.533C493.933,149.187,490.52,152.6,485.4,152.6z M323.267,135.533h153.6V16.067h-153.6V135.533 z"/> <path d="M493.933,340.333H306.2c-9.387,0-17.067-7.68-17.067-17.067V152.6c0-9.387,7.68-17.067,17.067-17.067h187.733 c9.387,0,17.067,7.68,17.067,17.067v170.667C511,332.653,503.32,340.333,493.933,340.333z M493.933,323.267v8.533V323.267 L493.933,323.267z M306.2,152.6v170.667h187.733V152.6H306.2z"/> <path d="M425.667,383h-51.2c-9.387,0-17.067-7.68-17.067-17.067V331.8c0-5.12,3.413-8.533,8.533-8.533H434.2 c5.12,0,8.533,3.413,8.533,8.533v34.133C442.733,375.32,435.053,383,425.667,383z M425.667,365.933v8.533V365.933L425.667,365.933z M374.467,340.333v25.6h51.2v-25.6H374.467z"/> <path d="M383,101.4h-34.133c-5.12,0-8.533-3.413-8.533-8.533V58.733c0-5.12,3.413-8.533,8.533-8.533H383 c5.12,0,8.533,3.413,8.533,8.533v34.133C391.533,97.987,388.12,101.4,383,101.4z M357.4,84.333h17.067V67.267H357.4V84.333z"/> <path d="M451.267,101.4h-34.133c-5.12,0-8.533-3.413-8.533-8.533V58.733c0-5.12,3.413-8.533,8.533-8.533h34.133 c5.12,0,8.533,3.413,8.533,8.533v34.133C459.8,97.987,456.387,101.4,451.267,101.4z M425.667,84.333h17.067V67.267h-17.067V84.333z "/> <path d="M169.667,511L169.667,511c-56.32,0-102.4-46.08-102.4-102.4v-34.133c0-5.12,3.413-8.533,8.533-8.533h34.133 c5.12,0,8.533,3.413,8.533,8.533V408.6c0,28.16,23.04,51.2,51.2,51.2h153.6c28.16,0,51.2-23.04,51.2-51.2v-34.133 c0-5.12,3.413-8.533,8.533-8.533h34.133c5.12,0,8.533,3.413,8.533,8.533V408.6c0,56.32-46.08,102.4-102.4,102.4H169.667z M84.333,383v25.6c0,46.933,38.4,85.333,85.333,85.333h153.6c46.933,0,85.333-38.4,85.333-85.333V383h-17.067v25.6 c0,37.547-30.72,68.267-68.267,68.267h-153.6c-37.547,0-68.267-30.72-68.267-68.267V383H84.333z"/> </g> </g>
</svg>